<svg width="32" height="32" viewBox="0 0 32 32" fill="none" xmlns="http://www.w3.org/2000/svg">
<rect opacity="0.1" width="32" height="32" rx="8" fill="#03A2B5"/>
<path opacity="0.2" d="M16 7.875C14.3424 7.875 12.7527 8.53348 11.5806 9.70558C10.4085 10.8777 9.75 12.4674 9.75 14.125C9.75 19.75 16 24.125 16 24.125C16 24.125 22.25 19.75 22.25 14.125C22.25 12.4674 21.5915 10.8777 20.4194 9.70558C19.2473 8.53348 17.6576 7.875 16 7.875ZM16 16.625C15.5055 16.625 15.0222 16.4784 14.6111 16.2037C14.2 15.929 13.8795 15.5385 13.6903 15.0817C13.5011 14.6249 13.4516 14.1222 13.548 13.6373C13.6445 13.1523 13.8826 12.7069 14.2322 12.3572C14.5819 12.0076 15.0273 11.7695 15.5123 11.673C15.9972 11.5766 16.4999 11.6261 16.9567 11.8153C17.4135 12.0045 17.804 12.325 18.0787 12.7361C18.3534 13.1472 18.5 13.6305 18.5 14.125C18.5 14.788 18.2366 15.4239 17.7678 15.8928C17.2989 16.3616 16.663 16.625 16 16.625Z" fill="#03A2B5"/>
<path d="M16 16.625C17.3807 16.625 18.5 15.5057 18.5 14.125C18.5 12.7443 17.3807 11.625 16 11.625C14.6193 11.625 13.5 12.7443 13.5 14.125C13.5 15.5057 14.6193 16.625 16 16.625Z" stroke="#03A2B5" stroke-linecap="round" stroke-linejoin="round"/>
<path d="M22.25 14.125C22.25 19.75 16 24.125 16 24.125C16 24.125 9.75 19.75 9.75 14.125C9.75 12.4674 10.4085 10.8777 11.5806 9.70558C12.7527 8.53348 14.3424 7.875 16 7.875C17.6576 7.875 19.2473 8.53348 20.4194 9.70558C21.5915 10.8777 22.25 12.4674 22.25 14.125V14.125Z" stroke="#03A2B5" stroke-linecap="round" stroke-linejoin="round"/>
</svg>
