<svg width="22" height="23" viewBox="0 0 22 23" fill="none" xmlns="http://www.w3.org/2000/svg">
<path d="M11.6875 12.1875C11.6875 12.5672 11.3797 12.875 11 12.875C10.6203 12.875 10.3125 12.5672 10.3125 12.1875C10.3125 11.8078 10.6203 11.5 11 11.5C11.3797 11.5 11.6875 11.8078 11.6875 12.1875Z" fill="white"/>
<path d="M6.875 14.9375C7.2547 14.9375 7.5625 14.6297 7.5625 14.25C7.5625 13.8703 7.2547 13.5625 6.875 13.5625C6.4953 13.5625 6.1875 13.8703 6.1875 14.25C6.1875 14.6297 6.4953 14.9375 6.875 14.9375Z" fill="white"/>
<path d="M7.5625 16.3125C7.5625 16.6922 7.2547 17 6.875 17C6.4953 17 6.1875 16.6922 6.1875 16.3125C6.1875 15.9328 6.4953 15.625 6.875 15.625C7.2547 15.625 7.5625 15.9328 7.5625 16.3125Z" fill="white"/>
<path d="M8.9375 14.9375C9.3172 14.9375 9.625 14.6297 9.625 14.25C9.625 13.8703 9.3172 13.5625 8.9375 13.5625C8.5578 13.5625 8.25 13.8703 8.25 14.25C8.25 14.6297 8.5578 14.9375 8.9375 14.9375Z" fill="white"/>
<path d="M9.625 16.3125C9.625 16.6922 9.3172 17 8.9375 17C8.5578 17 8.25 16.6922 8.25 16.3125C8.25 15.9328 8.5578 15.625 8.9375 15.625C9.3172 15.625 9.625 15.9328 9.625 16.3125Z" fill="white"/>
<path d="M11 14.9375C11.3797 14.9375 11.6875 14.6297 11.6875 14.25C11.6875 13.8703 11.3797 13.5625 11 13.5625C10.6203 13.5625 10.3125 13.8703 10.3125 14.25C10.3125 14.6297 10.6203 14.9375 11 14.9375Z" fill="white"/>
<path d="M11.6875 16.3125C11.6875 16.6922 11.3797 17 11 17C10.6203 17 10.3125 16.6922 10.3125 16.3125C10.3125 15.9328 10.6203 15.625 11 15.625C11.3797 15.625 11.6875 15.9328 11.6875 16.3125Z" fill="white"/>
<path d="M13.0625 14.9375C13.4422 14.9375 13.75 14.6297 13.75 14.25C13.75 13.8703 13.4422 13.5625 13.0625 13.5625C12.6828 13.5625 12.375 13.8703 12.375 14.25C12.375 14.6297 12.6828 14.9375 13.0625 14.9375Z" fill="white"/>
<path d="M13.75 16.3125C13.75 16.6922 13.4422 17 13.0625 17C12.6828 17 12.375 16.6922 12.375 16.3125C12.375 15.9328 12.6828 15.625 13.0625 15.625C13.4422 15.625 13.75 15.9328 13.75 16.3125Z" fill="white"/>
<path d="M15.125 14.9375C15.5047 14.9375 15.8125 14.6297 15.8125 14.25C15.8125 13.8703 15.5047 13.5625 15.125 13.5625C14.7453 13.5625 14.4375 13.8703 14.4375 14.25C14.4375 14.6297 14.7453 14.9375 15.125 14.9375Z" fill="white"/>
<path d="M13.75 12.1875C13.75 12.5672 13.4422 12.875 13.0625 12.875C12.6828 12.875 12.375 12.5672 12.375 12.1875C12.375 11.8078 12.6828 11.5 13.0625 11.5C13.4422 11.5 13.75 11.8078 13.75 12.1875Z" fill="white"/>
<path d="M15.125 12.875C15.5047 12.875 15.8125 12.5672 15.8125 12.1875C15.8125 11.8078 15.5047 11.5 15.125 11.5C14.7453 11.5 14.4375 11.8078 14.4375 12.1875C14.4375 12.5672 14.7453 12.875 15.125 12.875Z" fill="white"/>
<path fill-rule="evenodd" clip-rule="evenodd" d="M6.1875 2.5625C6.5672 2.5625 6.875 2.8703 6.875 3.25V4.625H15.125V3.25C15.125 2.8703 15.4328 2.5625 15.8125 2.5625C16.1922 2.5625 16.5 2.8703 16.5 3.25V4.625H17.1875C18.7063 4.625 19.9375 5.85622 19.9375 7.375V17.6875C19.9375 19.2063 18.7063 20.4375 17.1875 20.4375H4.8125C3.29372 20.4375 2.0625 19.2063 2.0625 17.6875V7.375C2.0625 5.85622 3.29372 4.625 4.8125 4.625H5.5V3.25C5.5 2.8703 5.8078 2.5625 6.1875 2.5625ZM18.5625 10.8125C18.5625 10.0531 17.9469 9.4375 17.1875 9.4375H4.8125C4.05311 9.4375 3.4375 10.0531 3.4375 10.8125V17.6875C3.4375 18.4469 4.05311 19.0625 4.8125 19.0625H17.1875C17.9469 19.0625 18.5625 18.4469 18.5625 17.6875V10.8125Z" fill="white"/>
</svg>
